<?xml version="1.0" encoding="utf-8" ?>
<svg baseProfile="full" height="223.5858250074274" version="1.1" width="247.17165001485486" xmlns="http://www.w3.org/2000/svg" xmlns:ev="http://www.w3.org/2001/xml-events" xmlns:xlink="http://www.w3.org/1999/xlink"><defs /><line stroke="rgb(139,69,19)" stroke-linecap="round" stroke-width="12" x1="123.58582500742746" x2="123.58582500742745" y1="223.5858250074274" y2="123.58582500742739" /><line stroke="rgb(139,69,19)" stroke-linecap="round" stroke-width="7" x1="123.58582500742745" x2="80.45231135504804" y1="123.58582500742739" y2="80.45231135504798" /><line stroke="rgb(139,69,19)" stroke-linecap="round" stroke-width="4" x1="80.45231135504804" x2="43.24231135504803" y1="80.45231135504798" y2="80.45231135504798" /><line stroke="rgb(139,69,19)" stroke-linecap="round" stroke-width="2" x1="43.24231135504803" x2="27.192330924997663" y1="80.45231135504798" y2="96.50229178509835" /><line stroke="rgb(139,69,19)" stroke-linecap="round" stroke-width="1" x1="27.192330924997663" x2="27.192330924997663" y1="96.50229178509835" y2="110.34813278509836" /><line stroke="rgb(139,69,19)" stroke-linecap="round" stroke-width="1" x1="27.192330924997663" x2="33.16452864301941" y1="110.34813278509836" y2="116.3203305031201" /><line stroke="rgb(34,139,34)" stroke-linecap="round" stroke-width="1" x1="33.16452864301941" x2="38.31656607911941" y1="116.3203305031201" y2="116.3203305031201" /><line stroke="rgb(34,139,34)" stroke-linecap="round" stroke-width="1" x1="38.31656607911941" x2="40.538820849995304" y1="116.3203305031201" y2="114.09807573224421" /><line stroke="rgb(34,139,34)" stroke-linecap="round" stroke-width="1" x1="38.31656607911941" x2="40.538820849995304" y1="116.3203305031201" y2="118.542585273996" /><line stroke="rgb(34,139,34)" stroke-linecap="round" stroke-width="1" x1="33.16452864301941" x2="33.16452864301941" y1="116.3203305031201" y2="121.4723679392201" /><line stroke="rgb(34,139,34)" stroke-linecap="round" stroke-width="1" x1="33.16452864301941" x2="35.3867834138953" y1="121.4723679392201" y2="123.694622710096" /><line stroke="rgb(34,139,34)" stroke-linecap="round" stroke-width="1" x1="33.16452864301941" x2="30.942273872143517" y1="121.4723679392201" y2="123.694622710096" /><line stroke="rgb(139,69,19)" stroke-linecap="round" stroke-width="1" x1="27.192330924997663" x2="21.220133206975916" y1="110.34813278509836" y2="116.3203305031201" /><line stroke="rgb(34,139,34)" stroke-linecap="round" stroke-width="1" x1="21.220133206975916" x2="21.220133206975916" y1="116.3203305031201" y2="121.4723679392201" /><line stroke="rgb(34,139,34)" stroke-linecap="round" stroke-width="1" x1="21.220133206975916" x2="23.44238797785181" y1="121.4723679392201" y2="123.694622710096" /><line stroke="rgb(34,139,34)" stroke-linecap="round" stroke-width="1" x1="21.220133206975916" x2="18.997878436100024" y1="121.4723679392201" y2="123.694622710096" /><line stroke="rgb(34,139,34)" stroke-linecap="round" stroke-width="1" x1="21.220133206975916" x2="16.068095770875914" y1="116.3203305031201" y2="116.3203305031201" /><line stroke="rgb(34,139,34)" stroke-linecap="round" stroke-width="1" x1="16.068095770875914" x2="13.845841000000021" y1="116.3203305031201" y2="118.542585273996" /><line stroke="rgb(34,139,34)" stroke-linecap="round" stroke-width="1" x1="16.068095770875914" x2="13.845841000000021" y1="116.3203305031201" y2="114.09807573224421" /><line stroke="rgb(139,69,19)" stroke-linecap="round" stroke-width="1" x1="27.192330924997663" x2="13.34648992499767" y1="96.50229178509835" y2="96.50229178509835" /><line stroke="rgb(139,69,19)" stroke-linecap="round" stroke-width="1" x1="13.34648992499767" x2="7.374292206975923" y1="96.50229178509835" y2="102.4744895031201" /><line stroke="rgb(34,139,34)" stroke-linecap="round" stroke-width="1" x1="7.374292206975923" x2="7.374292206975923" y1="102.4744895031201" y2="107.6265269392201" /><line stroke="rgb(34,139,34)" stroke-linecap="round" stroke-width="1" x1="7.374292206975923" x2="9.596546977851816" y1="107.6265269392201" y2="109.84878171009599" /><line stroke="rgb(34,139,34)" stroke-linecap="round" stroke-width="1" x1="7.374292206975923" x2="5.152037436100031" y1="107.6265269392201" y2="109.84878171009599" /><line stroke="rgb(34,139,34)" stroke-linecap="round" stroke-width="1" x1="7.374292206975923" x2="2.222254770875921" y1="102.4744895031201" y2="102.4744895031201" /><line stroke="rgb(34,139,34)" stroke-linecap="round" stroke-width="1" x1="2.222254770875921" x2="2.842170943040401e-14" y1="102.4744895031201" y2="104.69674427399599" /><line stroke="rgb(34,139,34)" stroke-linecap="round" stroke-width="1" x1="2.222254770875921" x2="2.842170943040401e-14" y1="102.4744895031201" y2="100.2522347322442" /><line stroke="rgb(139,69,19)" stroke-linecap="round" stroke-width="1" x1="13.34648992499767" x2="7.374292206975923" y1="96.50229178509835" y2="90.53009406707662" /><line stroke="rgb(34,139,34)" stroke-linecap="round" stroke-width="1" x1="7.374292206975923" x2="2.222254770875921" y1="90.53009406707662" y2="90.53009406707662" /><line stroke="rgb(34,139,34)" stroke-linecap="round" stroke-width="1" x1="2.222254770875921" x2="2.842170943040401e-14" y1="90.53009406707662" y2="92.7523488379525" /><line stroke="rgb(34,139,34)" stroke-linecap="round" stroke-width="1" x1="2.222254770875921" x2="2.842170943040401e-14" y1="90.53009406707662" y2="88.30783929620074" /><line stroke="rgb(34,139,34)" stroke-linecap="round" stroke-width="1" x1="7.374292206975923" x2="7.374292206975923" y1="90.53009406707662" y2="85.37805663097663" /><line stroke="rgb(34,139,34)" stroke-linecap="round" stroke-width="1" x1="7.374292206975923" x2="5.152037436100031" y1="85.37805663097663" y2="83.15580186010075" /><line stroke="rgb(34,139,34)" stroke-linecap="round" stroke-width="1" x1="7.374292206975923" x2="9.596546977851816" y1="85.37805663097663" y2="83.15580186010075" /><line stroke="rgb(139,69,19)" stroke-linecap="round" stroke-width="2" x1="43.24231135504803" x2="27.19233092499765" y1="80.45231135504798" y2="64.40233092499761" /><line stroke="rgb(139,69,19)" stroke-linecap="round" stroke-width="1" x1="27.19233092499765" x2="13.346489924997641" y1="64.40233092499761" y2="64.40233092499761" /><line stroke="rgb(139,69,19)" stroke-linecap="round" stroke-width="1" x1="13.346489924997641" x2="7.374292206975895" y1="64.40233092499761" y2="70.37452864301935" /><line stroke="rgb(34,139,34)" stroke-linecap="round" stroke-width="1" x1="7.374292206975895" x2="7.374292206975895" y1="70.37452864301935" y2="75.52656607911933" /><line stroke="rgb(34,139,34)" stroke-linecap="round" stroke-width="1" x1="7.374292206975895" x2="9.596546977851787" y1="75.52656607911933" y2="77.74882084999521" /><line stroke="rgb(34,139,34)" stroke-linecap="round" stroke-width="1" x1="7.374292206975895" x2="5.152037436100002" y1="75.52656607911933" y2="77.74882084999521" /><line stroke="rgb(34,139,34)" stroke-linecap="round" stroke-width="1" x1="7.374292206975895" x2="2.2222547708758924" y1="70.37452864301935" y2="70.37452864301935" /><line stroke="rgb(34,139,34)" stroke-linecap="round" stroke-width="1" x1="2.2222547708758924" x2="0.0" y1="70.37452864301935" y2="72.59678341389522" /><line stroke="rgb(34,139,34)" stroke-linecap="round" stroke-width="1" x1="2.2222547708758924" x2="0.0" y1="70.37452864301935" y2="68.15227387214347" /><line stroke="rgb(139,69,19)" stroke-linecap="round" stroke-width="1" x1="13.346489924997641" x2="7.374292206975895" y1="64.40233092499761" y2="58.43013320697588" /><line stroke="rgb(34,139,34)" stroke-linecap="round" stroke-width="1" x1="7.374292206975895" x2="2.2222547708758924" y1="58.43013320697588" y2="58.43013320697588" /><line stroke="rgb(34,139,34)" stroke-linecap="round" stroke-width="1" x1="2.2222547708758924" x2="0.0" y1="58.43013320697588" y2="60.65238797785176" /><line stroke="rgb(34,139,34)" stroke-linecap="round" stroke-width="1" x1="2.2222547708758924" x2="0.0" y1="58.43013320697588" y2="56.2078784361" /><line stroke="rgb(34,139,34)" stroke-linecap="round" stroke-width="1" x1="7.374292206975895" x2="7.374292206975895" y1="58.43013320697588" y2="53.27809577087589" /><line stroke="rgb(34,139,34)" stroke-linecap="round" stroke-width="1" x1="7.374292206975895" x2="5.152037436100002" y1="53.27809577087589" y2="51.055841000000015" /><line stroke="rgb(34,139,34)" stroke-linecap="round" stroke-width="1" x1="7.374292206975895" x2="9.596546977851787" y1="53.27809577087589" y2="51.055841000000015" /><line stroke="rgb(139,69,19)" stroke-linecap="round" stroke-width="1" x1="27.19233092499765" x2="27.19233092499765" y1="64.40233092499761" y2="50.55648992499761" /><line stroke="rgb(139,69,19)" stroke-linecap="round" stroke-width="1" x1="27.19233092499765" x2="21.220133206975902" y1="50.55648992499761" y2="44.584292206975874" /><line stroke="rgb(34,139,34)" stroke-linecap="round" stroke-width="1" x1="21.220133206975902" x2="16.0680957708759" y1="44.584292206975874" y2="44.584292206975874" /><line stroke="rgb(34,139,34)" stroke-linecap="round" stroke-width="1" x1="16.0680957708759" x2="13.845841000000007" y1="44.584292206975874" y2="46.80654697785175" /><line stroke="rgb(34,139,34)" stroke-linecap="round" stroke-width="1" x1="16.0680957708759" x2="13.845841000000007" y1="44.584292206975874" y2="42.362037436099996" /><line stroke="rgb(34,139,34)" stroke-linecap="round" stroke-width="1" x1="21.220133206975902" x2="21.220133206975902" y1="44.584292206975874" y2="39.432254770875886" /><line stroke="rgb(34,139,34)" stroke-linecap="round" stroke-width="1" x1="21.220133206975902" x2="18.99787843610001" y1="39.432254770875886" y2="37.21000000000001" /><line stroke="rgb(34,139,34)" stroke-linecap="round" stroke-width="1" x1="21.220133206975902" x2="23.442387977851794" y1="39.432254770875886" y2="37.21000000000001" /><line stroke="rgb(139,69,19)" stroke-linecap="round" stroke-width="1" x1="27.19233092499765" x2="33.164528643019395" y1="50.55648992499761" y2="44.584292206975874" /><line stroke="rgb(34,139,34)" stroke-linecap="round" stroke-width="1" x1="33.164528643019395" x2="33.164528643019395" y1="44.584292206975874" y2="39.432254770875886" /><line stroke="rgb(34,139,34)" stroke-linecap="round" stroke-width="1" x1="33.164528643019395" x2="30.942273872143502" y1="39.432254770875886" y2="37.21000000000001" /><line stroke="rgb(34,139,34)" stroke-linecap="round" stroke-width="1" x1="33.164528643019395" x2="35.38678341389529" y1="39.432254770875886" y2="37.21000000000001" /><line stroke="rgb(34,139,34)" stroke-linecap="round" stroke-width="1" x1="33.164528643019395" x2="38.3165660791194" y1="44.584292206975874" y2="44.584292206975874" /><line stroke="rgb(34,139,34)" stroke-linecap="round" stroke-width="1" x1="38.3165660791194" x2="40.53882084999529" y1="44.584292206975874" y2="42.362037436099996" /><line stroke="rgb(34,139,34)" stroke-linecap="round" stroke-width="1" x1="38.3165660791194" x2="40.53882084999529" y1="44.584292206975874" y2="46.80654697785175" /><line stroke="rgb(139,69,19)" stroke-linecap="round" stroke-width="4" x1="80.45231135504804" x2="80.45231135504802" y1="80.45231135504798" y2="43.242311355047974" /><line stroke="rgb(139,69,19)" stroke-linecap="round" stroke-width="2" x1="80.45231135504802" x2="64.40233092499764" y1="43.242311355047974" y2="27.192330924997606" /><line stroke="rgb(139,69,19)" stroke-linecap="round" stroke-width="1" x1="64.40233092499764" x2="50.55648992499765" y1="27.192330924997606" y2="27.192330924997606" /><line stroke="rgb(139,69,19)" stroke-linecap="round" stroke-width="1" x1="50.55648992499765" x2="44.5842922069759" y1="27.192330924997606" y2="33.16452864301934" /><line stroke="rgb(34,139,34)" stroke-linecap="round" stroke-width="1" x1="44.5842922069759" x2="44.5842922069759" y1="33.16452864301934" y2="38.316566079119326" /><line stroke="rgb(34,139,34)" stroke-linecap="round" stroke-width="1" x1="44.5842922069759" x2="46.806546977851795" y1="38.316566079119326" y2="40.538820849995204" /><line stroke="rgb(34,139,34)" stroke-linecap="round" stroke-width="1" x1="44.5842922069759" x2="42.36203743610001" y1="38.316566079119326" y2="40.538820849995204" /><line stroke="rgb(34,139,34)" stroke-linecap="round" stroke-width="1" x1="44.5842922069759" x2="39.4322547708759" y1="33.16452864301934" y2="33.16452864301934" /><line stroke="rgb(34,139,34)" stroke-linecap="round" stroke-width="1" x1="39.4322547708759" x2="37.21000000000001" y1="33.16452864301934" y2="35.386783413895216" /><line stroke="rgb(34,139,34)" stroke-linecap="round" stroke-width="1" x1="39.4322547708759" x2="37.21000000000001" y1="33.16452864301934" y2="30.94227387214346" /><line stroke="rgb(139,69,19)" stroke-linecap="round" stroke-width="1" x1="50.55648992499765" x2="44.5842922069759" y1="27.192330924997606" y2="21.220133206975873" /><line stroke="rgb(34,139,34)" stroke-linecap="round" stroke-width="1" x1="44.5842922069759" x2="39.4322547708759" y1="21.220133206975873" y2="21.220133206975873" /><line stroke="rgb(34,139,34)" stroke-linecap="round" stroke-width="1" x1="39.4322547708759" x2="37.21000000000001" y1="21.220133206975873" y2="23.44238797785175" /><line stroke="rgb(34,139,34)" stroke-linecap="round" stroke-width="1" x1="39.4322547708759" x2="37.21000000000001" y1="21.220133206975873" y2="18.997878436099995" /><line stroke="rgb(34,139,34)" stroke-linecap="round" stroke-width="1" x1="44.5842922069759" x2="44.5842922069759" y1="21.220133206975873" y2="16.068095770875885" /><line stroke="rgb(34,139,34)" stroke-linecap="round" stroke-width="1" x1="44.5842922069759" x2="42.36203743610001" y1="16.068095770875885" y2="13.845841000000007" /><line stroke="rgb(34,139,34)" stroke-linecap="round" stroke-width="1" x1="44.5842922069759" x2="46.806546977851795" y1="16.068095770875885" y2="13.845841000000007" /><line stroke="rgb(139,69,19)" stroke-linecap="round" stroke-width="1" x1="64.40233092499764" x2="64.40233092499764" y1="27.192330924997606" y2="13.346489924997599" /><line stroke="rgb(139,69,19)" stroke-linecap="round" stroke-width="1" x1="64.40233092499764" x2="58.430133206975896" y1="13.346489924997599" y2="7.374292206975866" /><line stroke="rgb(34,139,34)" stroke-linecap="round" stroke-width="1" x1="58.430133206975896" x2="53.27809577087589" y1="7.374292206975866" y2="7.374292206975866" /><line stroke="rgb(34,139,34)" stroke-linecap="round" stroke-width="1" x1="53.27809577087589" x2="51.055841" y1="7.374292206975866" y2="9.596546977851744" /><line stroke="rgb(34,139,34)" stroke-linecap="round" stroke-width="1" x1="53.27809577087589" x2="51.055841" y1="7.374292206975866" y2="5.152037436099988" /><line stroke="rgb(34,139,34)" stroke-linecap="round" stroke-width="1" x1="58.430133206975896" x2="58.430133206975896" y1="7.374292206975866" y2="2.222254770875878" /><line stroke="rgb(34,139,34)" stroke-linecap="round" stroke-width="1" x1="58.430133206975896" x2="56.2078784361" y1="2.222254770875878" y2="0.0" /><line stroke="rgb(34,139,34)" stroke-linecap="round" stroke-width="1" x1="58.430133206975896" x2="60.65238797785179" y1="2.222254770875878" y2="0.0" /><line stroke="rgb(139,69,19)" stroke-linecap="round" stroke-width="1" x1="64.40233092499764" x2="70.37452864301939" y1="13.346489924997599" y2="7.374292206975866" /><line stroke="rgb(34,139,34)" stroke-linecap="round" stroke-width="1" x1="70.37452864301939" x2="70.37452864301939" y1="7.374292206975866" y2="2.222254770875878" /><line stroke="rgb(34,139,34)" stroke-linecap="round" stroke-width="1" x1="70.37452864301939" x2="68.1522738721435" y1="2.222254770875878" y2="0.0" /><line stroke="rgb(34,139,34)" stroke-linecap="round" stroke-width="1" x1="70.37452864301939" x2="72.59678341389528" y1="2.222254770875878" y2="0.0" /><line stroke="rgb(34,139,34)" stroke-linecap="round" stroke-width="1" x1="70.37452864301939" x2="75.52656607911939" y1="7.374292206975866" y2="7.374292206975866" /><line stroke="rgb(34,139,34)" stroke-linecap="round" stroke-width="1" x1="75.52656607911939" x2="77.74882084999528" y1="7.374292206975866" y2="5.152037436099988" /><line stroke="rgb(34,139,34)" stroke-linecap="round" stroke-width="1" x1="75.52656607911939" x2="77.74882084999528" y1="7.374292206975866" y2="9.596546977851744" /><line stroke="rgb(139,69,19)" stroke-linecap="round" stroke-width="2" x1="80.45231135504802" x2="96.5022917850984" y1="43.242311355047974" y2="27.192330924997606" /><line stroke="rgb(139,69,19)" stroke-linecap="round" stroke-width="1" x1="96.5022917850984" x2="96.5022917850984" y1="27.192330924997606" y2="13.346489924997599" /><line stroke="rgb(139,69,19)" stroke-linecap="round" stroke-width="1" x1="96.5022917850984" x2="90.53009406707665" y1="13.346489924997599" y2="7.374292206975866" /><line stroke="rgb(34,139,34)" stroke-linecap="round" stroke-width="1" x1="90.53009406707665" x2="85.37805663097664" y1="7.374292206975866" y2="7.374292206975866" /><line stroke="rgb(34,139,34)" stroke-linecap="round" stroke-width="1" x1="85.37805663097664" x2="83.15580186010075" y1="7.374292206975866" y2="9.596546977851744" /><line stroke="rgb(34,139,34)" stroke-linecap="round" stroke-width="1" x1="85.37805663097664" x2="83.15580186010075" y1="7.374292206975866" y2="5.152037436099988" /><line stroke="rgb(34,139,34)" stroke-linecap="round" stroke-width="1" x1="90.53009406707665" x2="90.53009406707665" y1="7.374292206975866" y2="2.222254770875878" /><line stroke="rgb(34,139,34)" stroke-linecap="round" stroke-width="1" x1="90.53009406707665" x2="88.30783929620075" y1="2.222254770875878" y2="0.0" /><line stroke="rgb(34,139,34)" stroke-linecap="round" stroke-width="1" x1="90.53009406707665" x2="92.75234883795254" y1="2.222254770875878" y2="0.0" /><line stroke="rgb(139,69,19)" stroke-linecap="round" stroke-width="1" x1="96.5022917850984" x2="102.47448950312014" y1="13.346489924997599" y2="7.374292206975866" /><line stroke="rgb(34,139,34)" stroke-linecap="round" stroke-width="1" x1="102.47448950312014" x2="102.47448950312014" y1="7.374292206975866" y2="2.222254770875878" /><line stroke="rgb(34,139,34)" stroke-linecap="round" stroke-width="1" x1="102.47448950312014" x2="100.25223473224425" y1="2.222254770875878" y2="0.0" /><line stroke="rgb(34,139,34)" stroke-linecap="round" stroke-width="1" x1="102.47448950312014" x2="104.69674427399602" y1="2.222254770875878" y2="0.0" /><line stroke="rgb(34,139,34)" stroke-linecap="round" stroke-width="1" x1="102.47448950312014" x2="107.62652693922013" y1="7.374292206975866" y2="7.374292206975866" /><line stroke="rgb(34,139,34)" stroke-linecap="round" stroke-width="1" x1="107.62652693922013" x2="109.84878171009602" y1="7.374292206975866" y2="5.152037436099988" /><line stroke="rgb(34,139,34)" stroke-linecap="round" stroke-width="1" x1="107.62652693922013" x2="109.84878171009603" y1="7.374292206975866" y2="9.596546977851744" /><line stroke="rgb(139,69,19)" stroke-linecap="round" stroke-width="1" x1="96.5022917850984" x2="110.3481327850984" y1="27.192330924997606" y2="27.192330924997606" /><line stroke="rgb(139,69,19)" stroke-linecap="round" stroke-width="1" x1="110.3481327850984" x2="116.32033050312015" y1="27.192330924997606" y2="21.220133206975873" /><line stroke="rgb(34,139,34)" stroke-linecap="round" stroke-width="1" x1="116.32033050312015" x2="116.32033050312015" y1="21.220133206975873" y2="16.068095770875885" /><line stroke="rgb(34,139,34)" stroke-linecap="round" stroke-width="1" x1="116.32033050312015" x2="114.09807573224424" y1="16.068095770875885" y2="13.845841000000007" /><line stroke="rgb(34,139,34)" stroke-linecap="round" stroke-width="1" x1="116.32033050312015" x2="118.54258527399602" y1="16.068095770875885" y2="13.845841000000007" /><line stroke="rgb(34,139,34)" stroke-linecap="round" stroke-width="1" x1="116.32033050312015" x2="121.47236793922013" y1="21.220133206975873" y2="21.220133206975873" /><line stroke="rgb(34,139,34)" stroke-linecap="round" stroke-width="1" x1="121.47236793922013" x2="123.69462271009603" y1="21.220133206975873" y2="18.997878436099995" /><line stroke="rgb(34,139,34)" stroke-linecap="round" stroke-width="1" x1="121.47236793922013" x2="123.69462271009603" y1="21.220133206975873" y2="23.44238797785175" /><line stroke="rgb(139,69,19)" stroke-linecap="round" stroke-width="1" x1="110.3481327850984" x2="116.32033050312015" y1="27.192330924997606" y2="33.16452864301934" /><line stroke="rgb(34,139,34)" stroke-linecap="round" stroke-width="1" x1="116.32033050312015" x2="121.47236793922013" y1="33.16452864301934" y2="33.16452864301934" /><line stroke="rgb(34,139,34)" stroke-linecap="round" stroke-width="1" x1="121.47236793922013" x2="123.69462271009603" y1="33.16452864301934" y2="30.94227387214346" /><line stroke="rgb(34,139,34)" stroke-linecap="round" stroke-width="1" x1="121.47236793922013" x2="123.69462271009603" y1="33.16452864301934" y2="35.386783413895216" /><line stroke="rgb(34,139,34)" stroke-linecap="round" stroke-width="1" x1="116.32033050312015" x2="116.32033050312015" y1="33.16452864301934" y2="38.316566079119326" /><line stroke="rgb(34,139,34)" stroke-linecap="round" stroke-width="1" x1="116.32033050312015" x2="118.54258527399604" y1="38.316566079119326" y2="40.538820849995204" /><line stroke="rgb(34,139,34)" stroke-linecap="round" stroke-width="1" x1="116.32033050312015" x2="114.09807573224425" y1="38.316566079119326" y2="40.538820849995204" /><line stroke="rgb(139,69,19)" stroke-linecap="round" stroke-width="7" x1="123.58582500742745" x2="166.71933865980682" y1="123.58582500742739" y2="80.45231135504798" /><line stroke="rgb(139,69,19)" stroke-linecap="round" stroke-width="4" x1="166.71933865980682" x2="166.71933865980682" y1="80.45231135504798" y2="43.242311355047974" /><line stroke="rgb(139,69,19)" stroke-linecap="round" stroke-width="2" x1="166.71933865980682" x2="150.66935822975645" y1="43.242311355047974" y2="27.192330924997606" /><line stroke="rgb(139,69,19)" stroke-linecap="round" stroke-width="1" x1="150.66935822975645" x2="136.82351722975645" y1="27.192330924997606" y2="27.192330924997606" /><line stroke="rgb(139,69,19)" stroke-linecap="round" stroke-width="1" x1="136.82351722975645" x2="130.8513195117347" y1="27.192330924997606" y2="33.16452864301934" /><line stroke="rgb(34,139,34)" stroke-linecap="round" stroke-width="1" x1="130.8513195117347" x2="130.8513195117347" y1="33.16452864301934" y2="38.316566079119326" /><line stroke="rgb(34,139,34)" stroke-linecap="round" stroke-width="1" x1="130.8513195117347" x2="133.0735742826106" y1="38.316566079119326" y2="40.538820849995204" /><line stroke="rgb(34,139,34)" stroke-linecap="round" stroke-width="1" x1="130.8513195117347" x2="128.6290647408588" y1="38.316566079119326" y2="40.538820849995204" /><line stroke="rgb(34,139,34)" stroke-linecap="round" stroke-width="1" x1="130.8513195117347" x2="125.6992820756347" y1="33.16452864301934" y2="33.16452864301934" /><line stroke="rgb(34,139,34)" stroke-linecap="round" stroke-width="1" x1="125.6992820756347" x2="123.4770273047588" y1="33.16452864301934" y2="35.386783413895216" /><line stroke="rgb(34,139,34)" stroke-linecap="round" stroke-width="1" x1="125.6992820756347" x2="123.4770273047588" y1="33.16452864301934" y2="30.94227387214346" /><line stroke="rgb(139,69,19)" stroke-linecap="round" stroke-width="1" x1="136.82351722975645" x2="130.8513195117347" y1="27.192330924997606" y2="21.220133206975873" /><line stroke="rgb(34,139,34)" stroke-linecap="round" stroke-width="1" x1="130.8513195117347" x2="125.6992820756347" y1="21.220133206975873" y2="21.220133206975873" /><line stroke="rgb(34,139,34)" stroke-linecap="round" stroke-width="1" x1="125.6992820756347" x2="123.4770273047588" y1="21.220133206975873" y2="23.44238797785175" /><line stroke="rgb(34,139,34)" stroke-linecap="round" stroke-width="1" x1="125.6992820756347" x2="123.4770273047588" y1="21.220133206975873" y2="18.997878436099995" /><line stroke="rgb(34,139,34)" stroke-linecap="round" stroke-width="1" x1="130.8513195117347" x2="130.8513195117347" y1="21.220133206975873" y2="16.068095770875885" /><line stroke="rgb(34,139,34)" stroke-linecap="round" stroke-width="1" x1="130.8513195117347" x2="128.6290647408588" y1="16.068095770875885" y2="13.845841000000007" /><line stroke="rgb(34,139,34)" stroke-linecap="round" stroke-width="1" x1="130.8513195117347" x2="133.0735742826106" y1="16.068095770875885" y2="13.845841000000007" /><line stroke="rgb(139,69,19)" stroke-linecap="round" stroke-width="1" x1="150.66935822975645" x2="150.66935822975643" y1="27.192330924997606" y2="13.346489924997599" /><line stroke="rgb(139,69,19)" stroke-linecap="round" stroke-width="1" x1="150.66935822975643" x2="144.6971605117347" y1="13.346489924997599" y2="7.374292206975866" /><line stroke="rgb(34,139,34)" stroke-linecap="round" stroke-width="1" x1="144.6971605117347" x2="139.5451230756347" y1="7.374292206975866" y2="7.374292206975866" /><line stroke="rgb(34,139,34)" stroke-linecap="round" stroke-width="1" x1="139.5451230756347" x2="137.3228683047588" y1="7.374292206975866" y2="9.596546977851744" /><line stroke="rgb(34,139,34)" stroke-linecap="round" stroke-width="1" x1="139.5451230756347" x2="137.3228683047588" y1="7.374292206975866" y2="5.152037436099988" /><line stroke="rgb(34,139,34)" stroke-linecap="round" stroke-width="1" x1="144.6971605117347" x2="144.6971605117347" y1="7.374292206975866" y2="2.222254770875878" /><line stroke="rgb(34,139,34)" stroke-linecap="round" stroke-width="1" x1="144.6971605117347" x2="142.4749057408588" y1="2.222254770875878" y2="0.0" /><line stroke="rgb(34,139,34)" stroke-linecap="round" stroke-width="1" x1="144.6971605117347" x2="146.9194152826106" y1="2.222254770875878" y2="0.0" /><line stroke="rgb(139,69,19)" stroke-linecap="round" stroke-width="1" x1="150.66935822975643" x2="156.6415559477782" y1="13.346489924997599" y2="7.374292206975866" /><line stroke="rgb(34,139,34)" stroke-linecap="round" stroke-width="1" x1="156.6415559477782" x2="156.6415559477782" y1="7.374292206975866" y2="2.222254770875878" /><line stroke="rgb(34,139,34)" stroke-linecap="round" stroke-width="1" x1="156.6415559477782" x2="154.4193011769023" y1="2.222254770875878" y2="0.0" /><line stroke="rgb(34,139,34)" stroke-linecap="round" stroke-width="1" x1="156.6415559477782" x2="158.86381071865407" y1="2.222254770875878" y2="0.0" /><line stroke="rgb(34,139,34)" stroke-linecap="round" stroke-width="1" x1="156.6415559477782" x2="161.7935933838782" y1="7.374292206975866" y2="7.374292206975866" /><line stroke="rgb(34,139,34)" stroke-linecap="round" stroke-width="1" x1="161.7935933838782" x2="164.01584815475408" y1="7.374292206975866" y2="5.152037436099988" /><line stroke="rgb(34,139,34)" stroke-linecap="round" stroke-width="1" x1="161.7935933838782" x2="164.01584815475408" y1="7.374292206975866" y2="9.596546977851744" /><line stroke="rgb(139,69,19)" stroke-linecap="round" stroke-width="2" x1="166.71933865980682" x2="182.7693190898572" y1="43.242311355047974" y2="27.192330924997606" /><line stroke="rgb(139,69,19)" stroke-linecap="round" stroke-width="1" x1="182.7693190898572" x2="182.7693190898572" y1="27.192330924997606" y2="13.346489924997599" /><line stroke="rgb(139,69,19)" stroke-linecap="round" stroke-width="1" x1="182.7693190898572" x2="176.79712137183543" y1="13.346489924997599" y2="7.374292206975866" /><line stroke="rgb(34,139,34)" stroke-linecap="round" stroke-width="1" x1="176.79712137183543" x2="171.64508393573544" y1="7.374292206975866" y2="7.374292206975866" /><line stroke="rgb(34,139,34)" stroke-linecap="round" stroke-width="1" x1="171.64508393573544" x2="169.42282916485954" y1="7.374292206975866" y2="9.596546977851744" /><line stroke="rgb(34,139,34)" stroke-linecap="round" stroke-width="1" x1="171.64508393573544" x2="169.42282916485954" y1="7.374292206975866" y2="5.152037436099988" /><line stroke="rgb(34,139,34)" stroke-linecap="round" stroke-width="1" x1="176.79712137183543" x2="176.79712137183543" y1="7.374292206975866" y2="2.222254770875878" /><line stroke="rgb(34,139,34)" stroke-linecap="round" stroke-width="1" x1="176.79712137183543" x2="174.57486660095955" y1="2.222254770875878" y2="0.0" /><line stroke="rgb(34,139,34)" stroke-linecap="round" stroke-width="1" x1="176.79712137183543" x2="179.01937614271134" y1="2.222254770875878" y2="0.0" /><line stroke="rgb(139,69,19)" stroke-linecap="round" stroke-width="1" x1="182.7693190898572" x2="188.74151680787895" y1="13.346489924997599" y2="7.374292206975866" /><line stroke="rgb(34,139,34)" stroke-linecap="round" stroke-width="1" x1="188.74151680787895" x2="188.74151680787895" y1="7.374292206975866" y2="2.222254770875878" /><line stroke="rgb(34,139,34)" stroke-linecap="round" stroke-width="1" x1="188.74151680787895" x2="186.51926203700305" y1="2.222254770875878" y2="0.0" /><line stroke="rgb(34,139,34)" stroke-linecap="round" stroke-width="1" x1="188.74151680787895" x2="190.96377157875483" y1="2.222254770875878" y2="0.0" /><line stroke="rgb(34,139,34)" stroke-linecap="round" stroke-width="1" x1="188.74151680787895" x2="193.89355424397894" y1="7.374292206975866" y2="7.374292206975866" /><line stroke="rgb(34,139,34)" stroke-linecap="round" stroke-width="1" x1="193.89355424397894" x2="196.11580901485485" y1="7.374292206975866" y2="5.152037436099988" /><line stroke="rgb(34,139,34)" stroke-linecap="round" stroke-width="1" x1="193.89355424397894" x2="196.11580901485485" y1="7.374292206975866" y2="9.596546977851744" /><line stroke="rgb(139,69,19)" stroke-linecap="round" stroke-width="1" x1="182.7693190898572" x2="196.61516008985717" y1="27.192330924997606" y2="27.192330924997606" /><line stroke="rgb(139,69,19)" stroke-linecap="round" stroke-width="1" x1="196.61516008985717" x2="202.58735780787893" y1="27.192330924997606" y2="21.220133206975873" /><line stroke="rgb(34,139,34)" stroke-linecap="round" stroke-width="1" x1="202.58735780787893" x2="202.58735780787893" y1="21.220133206975873" y2="16.068095770875885" /><line stroke="rgb(34,139,34)" stroke-linecap="round" stroke-width="1" x1="202.58735780787893" x2="200.36510303700305" y1="16.068095770875885" y2="13.845841000000007" /><line stroke="rgb(34,139,34)" stroke-linecap="round" stroke-width="1" x1="202.58735780787893" x2="204.8096125787548" y1="16.068095770875885" y2="13.845841000000007" /><line stroke="rgb(34,139,34)" stroke-linecap="round" stroke-width="1" x1="202.58735780787893" x2="207.73939524397895" y1="21.220133206975873" y2="21.220133206975873" /><line stroke="rgb(34,139,34)" stroke-linecap="round" stroke-width="1" x1="207.73939524397895" x2="209.96165001485483" y1="21.220133206975873" y2="18.997878436099995" /><line stroke="rgb(34,139,34)" stroke-linecap="round" stroke-width="1" x1="207.73939524397895" x2="209.96165001485483" y1="21.220133206975873" y2="23.44238797785175" /><line stroke="rgb(139,69,19)" stroke-linecap="round" stroke-width="1" x1="196.61516008985717" x2="202.58735780787893" y1="27.192330924997606" y2="33.16452864301934" /><line stroke="rgb(34,139,34)" stroke-linecap="round" stroke-width="1" x1="202.58735780787893" x2="207.73939524397895" y1="33.16452864301934" y2="33.16452864301934" /><line stroke="rgb(34,139,34)" stroke-linecap="round" stroke-width="1" x1="207.73939524397895" x2="209.96165001485483" y1="33.16452864301934" y2="30.94227387214346" /><line stroke="rgb(34,139,34)" stroke-linecap="round" stroke-width="1" x1="207.73939524397895" x2="209.96165001485483" y1="33.16452864301934" y2="35.386783413895216" /><line stroke="rgb(34,139,34)" stroke-linecap="round" stroke-width="1" x1="202.58735780787893" x2="202.58735780787893" y1="33.16452864301934" y2="38.316566079119326" /><line stroke="rgb(34,139,34)" stroke-linecap="round" stroke-width="1" x1="202.58735780787893" x2="204.8096125787548" y1="38.316566079119326" y2="40.538820849995204" /><line stroke="rgb(34,139,34)" stroke-linecap="round" stroke-width="1" x1="202.58735780787893" x2="200.36510303700305" y1="38.316566079119326" y2="40.538820849995204" /><line stroke="rgb(139,69,19)" stroke-linecap="round" stroke-width="4" x1="166.71933865980682" x2="203.92933865980683" y1="80.45231135504798" y2="80.45231135504798" /><line stroke="rgb(139,69,19)" stroke-linecap="round" stroke-width="2" x1="203.92933865980683" x2="219.9793190898572" y1="80.45231135504798" y2="64.40233092499761" /><line stroke="rgb(139,69,19)" stroke-linecap="round" stroke-width="1" x1="219.9793190898572" x2="219.9793190898572" y1="64.40233092499761" y2="50.55648992499761" /><line stroke="rgb(139,69,19)" stroke-linecap="round" stroke-width="1" x1="219.9793190898572" x2="214.00712137183547" y1="50.55648992499761" y2="44.584292206975874" /><line stroke="rgb(34,139,34)" stroke-linecap="round" stroke-width="1" x1="214.00712137183547" x2="208.85508393573545" y1="44.584292206975874" y2="44.584292206975874" /><line stroke="rgb(34,139,34)" stroke-linecap="round" stroke-width="1" x1="208.85508393573545" x2="206.63282916485957" y1="44.584292206975874" y2="46.80654697785175" /><line stroke="rgb(34,139,34)" stroke-linecap="round" stroke-width="1" x1="208.85508393573545" x2="206.63282916485957" y1="44.584292206975874" y2="42.362037436099996" /><line stroke="rgb(34,139,34)" stroke-linecap="round" stroke-width="1" x1="214.00712137183547" x2="214.00712137183547" y1="44.584292206975874" y2="39.432254770875886" /><line stroke="rgb(34,139,34)" stroke-linecap="round" stroke-width="1" x1="214.00712137183547" x2="211.78486660095956" y1="39.432254770875886" y2="37.21000000000001" /><line stroke="rgb(34,139,34)" stroke-linecap="round" stroke-width="1" x1="214.00712137183547" x2="216.22937614271135" y1="39.432254770875886" y2="37.21000000000001" /><line stroke="rgb(139,69,19)" stroke-linecap="round" stroke-width="1" x1="219.9793190898572" x2="225.95151680787893" y1="50.55648992499761" y2="44.584292206975874" /><line stroke="rgb(34,139,34)" stroke-linecap="round" stroke-width="1" x1="225.95151680787893" x2="225.95151680787893" y1="44.584292206975874" y2="39.432254770875886" /><line stroke="rgb(34,139,34)" stroke-linecap="round" stroke-width="1" x1="225.95151680787893" x2="223.72926203700305" y1="39.432254770875886" y2="37.21000000000001" /><line stroke="rgb(34,139,34)" stroke-linecap="round" stroke-width="1" x1="225.95151680787893" x2="228.17377157875484" y1="39.432254770875886" y2="37.21000000000001" /><line stroke="rgb(34,139,34)" stroke-linecap="round" stroke-width="1" x1="225.95151680787893" x2="231.10355424397895" y1="44.584292206975874" y2="44.584292206975874" /><line stroke="rgb(34,139,34)" stroke-linecap="round" stroke-width="1" x1="231.10355424397895" x2="233.32580901485483" y1="44.584292206975874" y2="42.362037436099996" /><line stroke="rgb(34,139,34)" stroke-linecap="round" stroke-width="1" x1="231.10355424397895" x2="233.32580901485483" y1="44.584292206975874" y2="46.80654697785175" /><line stroke="rgb(139,69,19)" stroke-linecap="round" stroke-width="1" x1="219.9793190898572" x2="233.8251600898572" y1="64.40233092499761" y2="64.40233092499761" /><line stroke="rgb(139,69,19)" stroke-linecap="round" stroke-width="1" x1="233.8251600898572" x2="239.79735780787894" y1="64.40233092499761" y2="58.43013320697588" /><line stroke="rgb(34,139,34)" stroke-linecap="round" stroke-width="1" x1="239.79735780787894" x2="239.79735780787894" y1="58.43013320697588" y2="53.27809577087589" /><line stroke="rgb(34,139,34)" stroke-linecap="round" stroke-width="1" x1="239.79735780787894" x2="237.57510303700303" y1="53.27809577087589" y2="51.055841000000015" /><line stroke="rgb(34,139,34)" stroke-linecap="round" stroke-width="1" x1="239.79735780787894" x2="242.01961257875485" y1="53.27809577087589" y2="51.055841000000015" /><line stroke="rgb(34,139,34)" stroke-linecap="round" stroke-width="1" x1="239.79735780787894" x2="244.94939524397893" y1="58.43013320697588" y2="58.43013320697588" /><line stroke="rgb(34,139,34)" stroke-linecap="round" stroke-width="1" x1="244.94939524397893" x2="247.17165001485483" y1="58.43013320697588" y2="56.2078784361" /><line stroke="rgb(34,139,34)" stroke-linecap="round" stroke-width="1" x1="244.94939524397893" x2="247.17165001485483" y1="58.43013320697588" y2="60.65238797785176" /><line stroke="rgb(139,69,19)" stroke-linecap="round" stroke-width="1" x1="233.8251600898572" x2="239.79735780787894" y1="64.40233092499761" y2="70.37452864301935" /><line stroke="rgb(34,139,34)" stroke-linecap="round" stroke-width="1" x1="239.79735780787894" x2="244.94939524397893" y1="70.37452864301935" y2="70.37452864301935" /><line stroke="rgb(34,139,34)" stroke-linecap="round" stroke-width="1" x1="244.94939524397893" x2="247.17165001485483" y1="70.37452864301935" y2="68.15227387214347" /><line stroke="rgb(34,139,34)" stroke-linecap="round" stroke-width="1" x1="244.94939524397893" x2="247.17165001485483" y1="70.37452864301935" y2="72.59678341389522" /><line stroke="rgb(34,139,34)" stroke-linecap="round" stroke-width="1" x1="239.79735780787894" x2="239.79735780787894" y1="70.37452864301935" y2="75.52656607911933" /><line stroke="rgb(34,139,34)" stroke-linecap="round" stroke-width="1" x1="239.79735780787894" x2="242.01961257875485" y1="75.52656607911933" y2="77.74882084999521" /><line stroke="rgb(34,139,34)" stroke-linecap="round" stroke-width="1" x1="239.79735780787894" x2="237.57510303700303" y1="75.52656607911933" y2="77.74882084999521" /><line stroke="rgb(139,69,19)" stroke-linecap="round" stroke-width="2" x1="203.92933865980683" x2="219.9793190898572" y1="80.45231135504798" y2="96.50229178509835" /><line stroke="rgb(139,69,19)" stroke-linecap="round" stroke-width="1" x1="219.9793190898572" x2="233.8251600898572" y1="96.50229178509835" y2="96.50229178509835" /><line stroke="rgb(139,69,19)" stroke-linecap="round" stroke-width="1" x1="233.8251600898572" x2="239.79735780787897" y1="96.50229178509835" y2="90.53009406707662" /><line stroke="rgb(34,139,34)" stroke-linecap="round" stroke-width="1" x1="239.79735780787897" x2="239.79735780787897" y1="90.53009406707662" y2="85.37805663097663" /><line stroke="rgb(34,139,34)" stroke-linecap="round" stroke-width="1" x1="239.79735780787897" x2="237.5751030370031" y1="85.37805663097663" y2="83.15580186010075" /><line stroke="rgb(34,139,34)" stroke-linecap="round" stroke-width="1" x1="239.79735780787897" x2="242.01961257875485" y1="85.37805663097663" y2="83.15580186010075" /><line stroke="rgb(34,139,34)" stroke-linecap="round" stroke-width="1" x1="239.79735780787897" x2="244.94939524397898" y1="90.53009406707662" y2="90.53009406707662" /><line stroke="rgb(34,139,34)" stroke-linecap="round" stroke-width="1" x1="244.94939524397898" x2="247.17165001485486" y1="90.53009406707662" y2="88.30783929620074" /><line stroke="rgb(34,139,34)" stroke-linecap="round" stroke-width="1" x1="244.94939524397898" x2="247.17165001485486" y1="90.53009406707662" y2="92.7523488379525" /><line stroke="rgb(139,69,19)" stroke-linecap="round" stroke-width="1" x1="233.8251600898572" x2="239.79735780787897" y1="96.50229178509835" y2="102.4744895031201" /><line stroke="rgb(34,139,34)" stroke-linecap="round" stroke-width="1" x1="239.79735780787897" x2="244.94939524397898" y1="102.4744895031201" y2="102.4744895031201" /><line stroke="rgb(34,139,34)" stroke-linecap="round" stroke-width="1" x1="244.94939524397898" x2="247.17165001485486" y1="102.4744895031201" y2="100.2522347322442" /><line stroke="rgb(34,139,34)" stroke-linecap="round" stroke-width="1" x1="244.94939524397898" x2="247.17165001485486" y1="102.4744895031201" y2="104.69674427399599" /><line stroke="rgb(34,139,34)" stroke-linecap="round" stroke-width="1" x1="239.79735780787897" x2="239.79735780787897" y1="102.4744895031201" y2="107.6265269392201" /><line stroke="rgb(34,139,34)" stroke-linecap="round" stroke-width="1" x1="239.79735780787897" x2="242.01961257875485" y1="107.6265269392201" y2="109.84878171009599" /><line stroke="rgb(34,139,34)" stroke-linecap="round" stroke-width="1" x1="239.79735780787897" x2="237.5751030370031" y1="107.6265269392201" y2="109.84878171009599" /><line stroke="rgb(139,69,19)" stroke-linecap="round" stroke-width="1" x1="219.9793190898572" x2="219.9793190898572" y1="96.50229178509835" y2="110.34813278509836" /><line stroke="rgb(139,69,19)" stroke-linecap="round" stroke-width="1" x1="219.9793190898572" x2="225.95151680787896" y1="110.34813278509836" y2="116.3203305031201" /><line stroke="rgb(34,139,34)" stroke-linecap="round" stroke-width="1" x1="225.95151680787896" x2="231.10355424397898" y1="116.3203305031201" y2="116.3203305031201" /><line stroke="rgb(34,139,34)" stroke-linecap="round" stroke-width="1" x1="231.10355424397898" x2="233.32580901485485" y1="116.3203305031201" y2="114.09807573224421" /><line stroke="rgb(34,139,34)" stroke-linecap="round" stroke-width="1" x1="231.10355424397898" x2="233.32580901485485" y1="116.3203305031201" y2="118.542585273996" /><line stroke="rgb(34,139,34)" stroke-linecap="round" stroke-width="1" x1="225.95151680787896" x2="225.95151680787896" y1="116.3203305031201" y2="121.4723679392201" /><line stroke="rgb(34,139,34)" stroke-linecap="round" stroke-width="1" x1="225.95151680787896" x2="228.17377157875484" y1="121.4723679392201" y2="123.694622710096" /><line stroke="rgb(34,139,34)" stroke-linecap="round" stroke-width="1" x1="225.95151680787896" x2="223.72926203700308" y1="121.4723679392201" y2="123.694622710096" /><line stroke="rgb(139,69,19)" stroke-linecap="round" stroke-width="1" x1="219.9793190898572" x2="214.00712137183547" y1="110.34813278509836" y2="116.3203305031201" /><line stroke="rgb(34,139,34)" stroke-linecap="round" stroke-width="1" x1="214.00712137183547" x2="214.00712137183547" y1="116.3203305031201" y2="121.4723679392201" /><line stroke="rgb(34,139,34)" stroke-linecap="round" stroke-width="1" x1="214.00712137183547" x2="216.22937614271137" y1="121.4723679392201" y2="123.694622710096" /><line stroke="rgb(34,139,34)" stroke-linecap="round" stroke-width="1" x1="214.00712137183547" x2="211.78486660095956" y1="121.4723679392201" y2="123.694622710096" /><line stroke="rgb(34,139,34)" stroke-linecap="round" stroke-width="1" x1="214.00712137183547" x2="208.85508393573548" y1="116.3203305031201" y2="116.3203305031201" /><line stroke="rgb(34,139,34)" stroke-linecap="round" stroke-width="1" x1="208.85508393573548" x2="206.63282916485957" y1="116.3203305031201" y2="118.542585273996" /><line stroke="rgb(34,139,34)" stroke-linecap="round" stroke-width="1" x1="208.85508393573548" x2="206.63282916485957" y1="116.3203305031201" y2="114.09807573224421" /></svg>